<svg width="21" height="20" viewBox="0 0 21 20" fill="none" xmlns="http://www.w3.org/2000/svg">
<path d="M10.4836 0.499533C4.95864 0.509048 0.491154 4.87842 0.500418 10.2578C0.507831 14.5625 3.37911 18.208 7.35382 19.4881C7.85398 19.579 8.03679 19.2771 8.03635 19.0186C8.03595 18.7873 8.02656 18.1744 8.021 17.3623C5.24035 17.9545 4.65042 16.0613 4.65042 16.0613C4.19348 14.9378 3.53547 14.6382 3.53547 14.6382C2.62859 14.0359 3.60445 14.0466 3.60445 14.0466C4.60873 14.1126 5.13784 15.0477 5.13784 15.0477C6.03207 16.5355 7.48049 16.1027 8.05173 15.853C8.14065 15.2226 8.39741 14.7934 8.68282 14.5492C6.46157 14.3094 4.12597 13.4757 4.11954 9.74354C4.11771 8.68039 4.50371 7.81069 5.1442 7.12807C5.03128 6.8821 4.69207 5.89222 5.22726 4.54975C5.22726 4.54975 6.06431 4.28727 7.97898 5.54373C8.7786 5.32593 9.62842 5.21707 10.4784 5.21065C11.3284 5.21414 12.1786 5.32007 12.979 5.53512C14.8768 4.27209 15.7147 4.53169 15.7147 4.53169C16.2546 5.8723 15.9188 6.86335 15.8192 7.10969C16.4579 7.7901 16.8469 8.65846 16.8487 9.72162C16.8551 13.4637 14.5191 14.2914 12.2945 14.5347C12.645 14.8266 12.971 15.4233 12.9726 16.3361C12.9748 17.6396 12.9641 18.6871 12.9647 19.0035C12.9651 19.2587 13.1406 19.5633 13.653 19.4649C17.6516 18.1793 20.5078 14.5214 20.5004 10.2234C20.4911 4.84398 16.0061 0.490022 10.4836 0.499533Z" fill="#212121"/>
</svg>
