<svg width="22" height="22" viewBox="0 0 22 22" fill="none" xmlns="http://www.w3.org/2000/svg">
<path d="M14.788 1.01434L7.28804 0.985846C3.83682 0.972732 1.02745 3.76083 1.01434 7.21205L0.985839 14.712C0.972725 18.1632 3.76082 20.9726 7.21204 20.9857L14.712 21.0142C18.1632 21.0273 20.9726 18.2392 20.9857 14.788L21.0142 7.28805C21.0273 3.83682 18.2392 1.02746 14.788 1.01434ZM19.1107 14.7809C19.1015 17.1934 17.1316 19.1484 14.7191 19.1392L7.21917 19.1107C4.80669 19.1015 2.85166 17.1316 2.86083 14.7191L2.88932 7.21918C2.89849 4.80669 4.86843 2.85167 7.28092 2.86083L14.7809 2.88933C17.1933 2.8985 19.1484 4.86844 19.1392 7.28092L19.1107 14.7809Z" fill="black"/>
<path d="M11.019 6.00006C8.25778 5.98957 6.01054 8.21979 6.00004 10.981C5.98955 13.7423 8.21978 15.9895 10.981 16C13.7422 16.0105 15.9895 13.7803 16 11.019C16.0105 8.25779 13.7802 6.01055 11.019 6.00006ZM10.9881 14.125C9.26565 14.1185 7.86849 12.7106 7.87503 10.9881C7.88158 9.26441 9.28939 7.8685 11.0119 7.87504C12.7344 7.88159 14.1315 9.28816 14.125 11.0119C14.1184 12.7344 12.7106 14.1315 10.9881 14.125Z" fill="black"/>
<path d="M16.3929 6.31171C16.7608 6.31311 17.0602 6.01596 17.0616 5.648C17.063 5.28005 16.7659 4.98063 16.3979 4.97923C16.03 4.97783 15.7306 5.27499 15.7292 5.64294C15.7278 6.0109 16.0249 6.31032 16.3929 6.31171Z" fill="black"/>
</svg>
