<svg xmlns="http://www.w3.org/2000/svg" width="256" height="256" viewBox="0 0 100 100">
  <rect width="100" height="100" rx="50" fill="#ffa501"></rect>
  <path fill="#4e4933" d="M84.25 62.20L84.25 62.20Q85.78 62.20 85.78 66.34L85.78 66.34Q85.78 68.59 83.89 71.78Q82.00 74.98 78.98 77.63Q75.97 80.28 72.28 82.00Q68.58 83.70 65.08 83.70L65.08 83.70Q59.77 83.70 57.74 81.05Q55.72 78.39 55.72 73.22Q55.72 68.05 59.77 55.45L59.77 55.45Q47.34 54.91 41.67 54.91L41.67 54.91L40.42 54.91Q38.80 64.90 38.80 75.88L38.80 75.88Q38.80 80.73 35.11 82.53L35.11 82.53Q33.40 83.34 31.82 84.06Q30.25 84.78 28.45 84.78L28.45 84.78Q23.95 84.78 23.95 76.69Q23.95 68.59 27.64 55.90L27.64 55.90Q23.68 56.34 20.66 56.80Q17.65 57.25 15.94 57.25Q14.23 57.25 14.23 56.34L14.23 56.34Q14.23 53.65 18.64 50.86L18.64 50.86Q23.14 48.07 30.79 46.63L30.79 46.63Q39.25 25.12 51.48 17.92L51.48 17.92Q55.98 15.22 61.03 15.22L61.03 15.22Q70.03 15.31 74.03 20.08Q78.03 24.85 78.08 32.72Q78.13 40.60 73.27 53.20L73.27 53.20Q71.47 58.06 69.94 62.02Q68.41 65.97 68.41 68.41Q68.41 70.84 68.77 72.09Q69.13 73.36 70.47 73.36L70.47 73.36Q72.91 73.36 81.91 64.00L81.91 64.00Q83.53 62.20 84.25 62.20ZM65.08 35.38L65.08 35.38Q65.08 27.55 59.22 27.55L59.22 27.55Q53.28 27.55 49.01 32.54Q44.73 37.54 42.39 45.91L42.39 45.91L62.83 46.18Q65.08 38.98 65.08 35.38Z"></path>
</svg>